<!--?xml version="1.0" encoding="utf-8"?-->
<!-- Generator: Adobe Illustrator 22.1.0, SVG Export Plug-In . SVG Version: 6.00 Build 0)  -->
<svg version="1.1" id="_x34_" xmlns="http://www.w3.org/2000/svg" xmlns:xlink="http://www.w3.org/1999/xlink" x="0px" y="0px" viewBox="0 0 748.7 800" style="enable-background:new 0 0 748.7 800;" xml:space="preserve">
<style type="text/css">
	.stblack{fill:#000000;}
	.st0{fill:#FFFFFF;}
</style>
<g>
	<path class="stblack" d="M675.2,209c-16.3-31.8-37.7-61.2-63.7-87.2C545.9,56.1,458.7,20,366,20c-92.8,0-180,36.1-245.6,101.7
		C54.8,187.3,18.7,274.5,18.7,367.3c0,67.3,19.5,133.2,55.5,189.3c11.3,22.1,25,43,40.9,62.3c51.2,62.1,122.2,104,199.9,118.1
		c16.2,2.9,23.2,11.4,31.2,21.1c8.1,9.8,18.1,21.9,36.4,21.9s28.4-12.2,36.4-21.9c8-9.8,15-18.2,31.2-21.1
		C528,722.8,599,680.9,650.2,618.8c51.4-62.3,79.7-141.4,79.7-222.5C729.9,328.8,710.8,264.3,675.2,209z"></path>
	<path class="st0" d="M366,38.2c-181.8,0-329.1,147.3-329.1,329.1c0,159.7,113.3,295.3,264.7,322.8c40.9,7.4,42.4,42.8,64.4,42.8
		c22,0,23.5-35.4,64.4-42.8C581.8,662.6,695.1,527,695.1,367.3C695.1,185.5,547.7,38.2,366,38.2z"></path>
</g>
</svg>
